<svg width="40" height="32" viewBox="0 0 40 32" fill="none" xmlns="http://www.w3.org/2000/svg">
<path fill-rule="evenodd" clip-rule="evenodd" d="M0 15.75C0 15.5877 0.0524839 15.4297 0.149619 15.2997L11.279 0.401524C11.4678 0.148822 11.7647 0 12.0801 0H37.8947H39C39.5523 0 40 0.447715 40 1V2V29V30.5C40 31.0523 39.5523 31.5 39 31.5H37.3684H12.0801C11.7647 31.5 11.4678 31.3512 11.279 31.0985L0.149619 16.2003C0.0524839 16.0703 0 15.9123 0 15.75ZM18.9747 8.14554C18.5902 7.77754 17.9848 7.7752 17.5975 8.14023L15.6222 10.0017C15.2045 10.3954 15.2031 11.0591 15.6193 11.4545L19.3147 14.9651C19.7299 15.3596 19.7296 16.0216 19.314 16.4157L15.6513 19.889C15.2365 20.2823 15.2353 20.9428 15.6487 21.3377L17.606 23.2077C17.9914 23.5759 18.598 23.5771 18.9848 23.2103L22.8069 19.5866C23.1932 19.2203 23.7989 19.2209 24.1845 19.5881L27.9873 23.2092C28.3732 23.5766 28.9794 23.5769 29.3657 23.2099L31.3333 21.34C31.7495 20.9446 31.748 20.2808 31.3301 19.8872L27.6442 16.4155C27.2263 16.0219 27.2248 15.358 27.641 14.9626L31.3412 11.447C31.7544 11.0545 31.7564 10.3965 31.3457 10.0014L29.4234 8.15219C29.0377 7.78122 28.4284 7.77958 28.0408 8.14846L24.1877 11.8151C23.8008 12.1833 23.1928 12.1824 22.8069 11.8131L18.9747 8.14554Z" fill="white"/>
</svg>
