<svg width="44" height="42" viewBox="0 0 44 42" fill="none" xmlns="http://www.w3.org/2000/svg">
<path d="M28.5 15H43C43.2761 15 43.5 15.2239 43.5 15.5V26C43.5 26.5523 43.0523 27 42.5 27H28.5H16H2C1.44772 27 1 26.5523 1 26V16C1 15.4477 1.44772 15 2 15H16H28.5Z" fill="white"/>
<path d="M22.25 12C19.3505 12 17 9.6495 17 6.75V6.25C17 3.35051 19.3505 1 22.25 1C25.1495 1 27.5 3.35051 27.5 6.25V6.75C27.5 9.64949 25.1495 12 22.25 12Z" fill="white"/>
<path d="M22.25 30C19.3505 30 17 32.3505 17 35.25V35.75C17 38.6495 19.3505 41 22.25 41C25.1495 41 27.5 38.6495 27.5 35.75V35.25C27.5 32.3505 25.1495 30 22.25 30Z" fill="white"/>
<path d="M28.5 15H43C43.2761 15 43.5 15.2239 43.5 15.5V26C43.5 26.5523 43.0523 27 42.5 27H28.5H16H2C1.44772 27 1 26.5523 1 26V16C1 15.4477 1.44772 15 2 15H16H28.5Z" stroke="black" stroke-width="0.1"/>
<path d="M22.25 12C19.3505 12 17 9.6495 17 6.75V6.25C17 3.35051 19.3505 1 22.25 1C25.1495 1 27.5 3.35051 27.5 6.25V6.75C27.5 9.64949 25.1495 12 22.25 12Z" stroke="black" stroke-width="0.1"/>
<path d="M22.25 30C19.3505 30 17 32.3505 17 35.25V35.75C17 38.6495 19.3505 41 22.25 41C25.1495 41 27.5 38.6495 27.5 35.75V35.25C27.5 32.3505 25.1495 30 22.25 30Z" stroke="black" stroke-width="0.1"/>
</svg>
