<svg width="44" height="30" viewBox="0 0 44 30" fill="none" xmlns="http://www.w3.org/2000/svg">
<path d="M28.5 1H42.5C43.0523 1 43.5 1.44772 43.5 2V12C43.5 12.5523 43.0523 13 42.5 13H28.5H16H2C1.44772 13 1 12.5523 1 12V2C1 1.44772 1.44772 1 2 1H16H28.5Z" fill="white" stroke="black" stroke-width="0.1"/>
<path d="M28.5 17H42.5C43.0523 17 43.5 17.4477 43.5 18V28C43.5 28.5523 43.0523 29 42.5 29H28.5H16H2C1.44772 29 1 28.5523 1 28V18C1 17.4477 1.44772 17 2 17H16H28.5Z" fill="white" stroke="black" stroke-width="0.1"/>
</svg>
