<svg width="39" height="38" viewBox="0 0 39 38" fill="none" xmlns="http://www.w3.org/2000/svg">
<path d="M8.11309 0.438489L0.688464 7.86311C0.29794 8.25364 0.29794 8.8868 0.688464 9.27732L9.88085 18.4697C10.2714 18.8602 10.2714 19.4934 9.88085 19.8839L0.688464 29.0763C0.29794 29.4668 0.29794 30.1 0.688464 30.4905L7.75953 37.5616C8.15006 37.9521 8.78322 37.9521 9.17375 37.5616L18.3661 28.3692C18.7567 27.9787 19.3898 27.9787 19.7803 28.3692L28.9727 37.5616C29.3633 37.9521 29.9964 37.9521 30.3869 37.5616L37.8116 30.137C38.2021 29.7464 38.2021 29.1133 37.8116 28.7228L28.6192 19.5304C28.2287 19.1398 28.2287 18.5067 28.6192 18.1162L37.8116 8.92377C38.2021 8.53325 38.2021 7.90008 37.8116 7.50956L30.7405 0.438489C30.35 0.0479655 29.7168 0.0479655 29.3263 0.438489L20.1339 9.63088C19.7434 10.0214 19.1102 10.0214 18.7197 9.63088L9.5273 0.438489C9.13677 0.0479652 8.50361 0.0479655 8.11309 0.438489Z" fill="white" stroke="black" stroke-width="0.1"/>
</svg>
