<svg width="44" height="44" viewBox="0 0 44 44" fill="none" xmlns="http://www.w3.org/2000/svg">
<path d="M27.5 1H17C16.4477 1 16 1.44772 16 2V15C16 15.5523 15.5523 16 15 16H2C1.44772 16 1 16.4477 1 17V27C1 27.5523 1.44772 28 2 28H15C15.5523 28 16 28.4477 16 29V42C16 42.5523 16.4477 43 17 43H27.5C28.0523 43 28.5 42.5523 28.5 42V29C28.5 28.4477 28.9477 28 29.5 28H42.5C43.0523 28 43.5 27.5523 43.5 27V17C43.5 16.4477 43.0523 16 42.5 16H29.5C28.9477 16 28.5 15.5523 28.5 15V2C28.5 1.44772 28.0523 1 27.5 1Z" fill="white" stroke="black" stroke-width="0.1"/>
</svg>
